<?xml version="1.0" encoding="utf-8"?>
<!-- Generator: Adobe Illustrator 19.0.0, SVG Export Plug-In . SVG Version: 6.00 Build 0)  -->
<svg version="1.1" id="Capa_1" xmlns="http://www.w3.org/2000/svg" xmlns:xlink="http://www.w3.org/1999/xlink" x="0px" y="0px"
	 viewBox="0 0 97.3 87.3" style="enable-background:new 0 0 97.3 87.3;" xml:space="preserve">
<style type="text/css">
	.st0{fill:#FFFFFF;}
	.st1{fill:#C22E31;}
	.st2{fill:#C22E31;stroke:#C22E31;stroke-miterlimit:10;}
	.st3{fill:none;}
	.st4{font-family:'Stencil';}
	.st5{font-size:18px;}
	.st6{letter-spacing:0.9;}
</style>
<g id="XMLID_14_">
	<g id="XMLID_3_">
		<circle id="XMLID_104_" class="st0" cx="49.1" cy="44.9" r="37.6"/>
		<g id="XMLID_99_">
			<path id="XMLID_103_" class="st1" d="M84.9,44.9c-0.3,15-9.5,28.6-23.7,33.7c-14,5-29.9,0.6-39.5-10.8
				c-9.6-11.4-10.9-28.1-3.4-41c7.6-13,23-20,37.8-17C72.8,13.2,84.5,28,84.9,44.9c0,2.4,3.8,2.4,3.8,0
				C88.3,28.4,78.3,13.6,62.7,7.8C46.9,2,28.6,7.2,18.2,20.3C8.2,33,6.8,50.9,15,64.9c8.4,14.3,25.1,21.9,41.4,18.9
				c18.7-3.4,31.9-20.1,32.2-38.8C88.6,42.5,84.9,42.5,84.9,44.9z"/>
		</g>
	</g>
	<circle id="XMLID_2_" class="st2" cx="49.1" cy="44.9" r="22.9"/>
	<path id="XMLID_1_" class="st2" d="M81.1,62.1H17.1c-6.6,0-12-5.4-12-12V39.7c0-6.6,5.4-12,12-12h64.1c6.6,0,12,5.4,12,12v10.4
		C93.1,56.7,87.7,62.1,81.1,62.1z"/>
	<g id="XMLID_8_">
		<g id="XMLID_147_">
			<g id="XMLID_186_">
				
					<rect id="XMLID_190_" x="64.7" y="19.2" transform="matrix(-0.7547 0.6561 -0.6561 -0.7547 140.448 -2.6185)" class="st3" width="12" height="11.4"/>
				<g id="XMLID_187_">
					<polygon id="XMLID_189_" class="st1" points="70.2,24.4 71.1,24.7 71.8,24.3 71.7,25.1 72.4,25.7 71.5,25.9 71.2,26.7 70.8,26 
						69.9,25.9 70.5,25.3 					"/>
					<polygon id="XMLID_188_" class="st1" points="77.3,26.8 73.2,27.8 71.7,31.7 69.5,28.1 65.3,27.9 68,24.7 67,20.6 70.8,22.3 
						74.4,20 74,24.2 					"/>
				</g>
			</g>
			<g id="XMLID_181_">
				
					<rect id="XMLID_185_" x="44.1" y="9.1" transform="matrix(-0.7547 0.6561 -0.6561 -0.7547 97.5347 -6.9017)" class="st3" width="12" height="11.4"/>
				<g id="XMLID_182_">
					<polygon id="XMLID_184_" class="st1" points="49.6,14.2 50.4,14.6 51.1,14.1 51.1,15 51.8,15.5 50.9,15.7 50.6,16.6 50.1,15.8 
						49.2,15.8 49.8,15.1 					"/>
					<polygon id="XMLID_183_" class="st1" points="56.6,16.7 52.5,17.6 51,21.5 48.8,17.9 44.6,17.7 47.4,14.5 46.3,10.5 50.2,12.1 
						53.7,9.8 53.4,14 					"/>
				</g>
			</g>
			<g id="XMLID_176_">
				
					<rect id="XMLID_180_" x="22.9" y="17.8" transform="matrix(-0.7547 0.6561 -0.6561 -0.7547 66.1336 22.3533)" class="st3" width="12" height="11.4"/>
				<g id="XMLID_177_">
					<polygon id="XMLID_179_" class="st1" points="28.4,23 29.2,23.3 30,22.9 29.9,23.7 30.6,24.3 29.7,24.5 29.4,25.3 28.9,24.6 
						28.1,24.5 28.6,23.8 					"/>
					<polygon id="XMLID_178_" class="st1" points="35.4,25.4 31.4,26.4 29.8,30.3 27.7,26.7 23.5,26.5 26.2,23.3 25.1,19.2 29,20.9 
						32.5,18.6 32.2,22.8 					"/>
				</g>
			</g>
			<g id="XMLID_171_">
				
					<rect id="XMLID_175_" x="12.9" y="38.6" transform="matrix(-0.7547 0.6561 -0.6561 -0.7547 62.166 65.3198)" class="st3" width="12" height="11.4"/>
				<g id="XMLID_172_">
					<polygon id="XMLID_174_" class="st1" points="18.4,43.7 19.2,44.1 20,43.6 19.9,44.5 20.6,45 19.7,45.2 19.4,46.1 18.9,45.3 
						18,45.3 18.6,44.6 					"/>
					<polygon id="XMLID_173_" class="st1" points="25.4,46.2 21.3,47.1 19.8,51 17.6,47.4 13.5,47.2 16.2,44 15.1,40 19,41.6 
						22.5,39.3 22.2,43.5 					"/>
				</g>
			</g>
			<g id="XMLID_166_">
				
					<rect id="XMLID_170_" x="22" y="59.7" transform="matrix(-0.7547 0.6561 -0.6561 -0.7547 91.9281 96.3602)" class="st3" width="12" height="11.4"/>
				<g id="XMLID_167_">
					<polygon id="XMLID_169_" class="st1" points="27.5,64.8 28.3,65.2 29,64.7 29,65.6 29.6,66.1 28.8,66.3 28.5,67.1 28,66.4 
						27.1,66.3 27.7,65.7 					"/>
					<polygon id="XMLID_168_" class="st1" points="34.5,67.2 30.4,68.2 28.9,72.1 26.7,68.5 22.5,68.3 25.3,65.1 24.2,61.1 
						28.1,62.7 31.6,60.4 31.2,64.6 					"/>
				</g>
			</g>
			<g id="XMLID_161_">
				
					<rect id="XMLID_165_" x="42.8" y="69.5" transform="matrix(-0.7547 0.6561 -0.6561 -0.7547 134.9478 100.0121)" class="st3" width="12" height="11.4"/>
				<g id="XMLID_162_">
					<polygon id="XMLID_164_" class="st1" points="48.3,74.7 49.1,75 49.9,74.5 49.8,75.4 50.5,76 49.6,76.2 49.3,77 48.8,76.3 
						47.9,76.2 48.5,75.5 					"/>
					<polygon id="XMLID_163_" class="st1" points="55.3,77.1 51.2,78.1 49.7,82 47.5,78.4 43.4,78.1 46.1,75 45,70.9 48.9,72.5 
						52.4,70.3 52.1,74.5 					"/>
				</g>
			</g>
			<g id="XMLID_156_">
				
					<rect id="XMLID_160_" x="63.8" y="60.1" transform="matrix(-0.7547 0.6561 -0.6561 -0.7547 165.6274 69.7429)" class="st3" width="12" height="11.4"/>
				<g id="XMLID_157_">
					<polygon id="XMLID_159_" class="st1" points="69.3,65.3 70.1,65.6 70.9,65.1 70.8,66 71.5,66.6 70.6,66.8 70.3,67.6 69.8,66.9 
						68.9,66.8 69.5,66.1 					"/>
					<polygon id="XMLID_158_" class="st1" points="76.3,67.7 72.2,68.7 70.7,72.6 68.5,69 64.4,68.8 67.1,65.6 66,61.5 69.9,63.1 
						73.4,60.9 73.1,65.1 					"/>
				</g>
			</g>
			<g id="XMLID_151_">
				
					<rect id="XMLID_155_" x="73.5" y="39.2" transform="matrix(-0.7547 0.6561 -0.6561 -0.7547 168.9637 26.67)" class="st3" width="12" height="11.4"/>
				<g id="XMLID_152_">
					<polygon id="XMLID_154_" class="st1" points="79,44.4 79.8,44.7 80.6,44.2 80.5,45.1 81.2,45.7 80.3,45.9 80,46.7 79.5,45.9 
						78.7,45.9 79.2,45.2 					"/>
					<polygon id="XMLID_153_" class="st1" points="86,46.8 82,47.8 80.4,51.7 78.3,48.1 74.1,47.8 76.8,44.7 75.8,40.6 79.6,42.2 
						83.1,40 82.8,44.1 					"/>
				</g>
			</g>
		</g>
	</g>
	<text transform="matrix(1.15 0 0 1.86 10.4403 56.2394)" class="st0 st4 st5 st6">OFE</text>
	<text transform="matrix(1.15 0 0 1.86 50.5487 56.2394)" class="st0 st4 st5">R</text>
	<text transform="matrix(1 0 0 1.86 65.0224 56.2394)" class="st0 st4 st5">T</text>
	<text transform="matrix(1 0 0 1.86 75.7099 56.2394)" class="st0 st4 st5">A</text>
</g>
</svg>
