<?xml version="1.0" encoding="utf-8"?>
<!-- Generator: Adobe Illustrator 19.0.0, SVG Export Plug-In . SVG Version: 6.00 Build 0)  -->
<svg version="1.1" xmlns="http://www.w3.org/2000/svg" xmlns:xlink="http://www.w3.org/1999/xlink" x="0px" y="0px"
	 viewBox="0 0 565.2 366" style="enable-background:new 0 0 565.2 366;" xml:space="preserve">
<style type="text/css">
	.st0{display:none;}
	.st1{fill:#D8D8D8;}
	.st2{fill:#EFEFEF;}
	.st3{fill:#9AFC9A;}
	.st4{fill:#AB9E9E;}
	.st5{fill:#FFFFFF;}
	.st6{fill:#FFDB26;}
	.st7{fill:#F7F7F7;}
	.st8{opacity:0.56;fill:#919191;}
	.st9{fill:none;stroke:#493C3D;stroke-miterlimit:10;}
	.st10{fill:#E6E6E6;}
	.st11{fill:#FFFFFF;stroke:#FFFFFF;stroke-miterlimit:10;}
	.st12{fill:#333333;stroke:#333333;stroke-miterlimit:10;}
	.st13{fill:#4D4D4D;}
	.st14{fill:#4D4D4D;stroke:#4D4D4D;stroke-miterlimit:10;}
	.st15{opacity:0.66;fill:#A6FAFA;}
	.st16{opacity:0.72;fill:#FCFCFC;}
	.st17{fill:#CCCCCC;}
</style>
<g id="Original" class="st0">
	
		<image style="display:inline;overflow:visible;" width="564" height="563" xlink:href="../../../laragon/www/eventos-landing/public/images/search.png"  transform="matrix(1 0 0 1 -14.1038 -359.554)">
	</image>
</g>
<g id="Capa_3">
	<path class="st1" d="M179.9,288l-0.6,0l-0.8,0.1l-9.5,0.6l-1.4,0.1l-27.5,1.8l-1.9,0.1h0l-2.1,0.1l-21.2,1.3l-2,0.1L42,296.8
		l-0.3,0l14-69.3l2.5-12.2l3.6-17.7l1.5-7.6l0.2-0.9l5.8-28.6l0.5-2.6v-30.2c0-6,1.1-11.9,3.3-17.6c0.1-0.2,0.2-0.5,0.3-0.7
		c0.4-1,0.8-2.1,1.3-3.1c0.2-0.4,0.4-0.9,0.6-1.3l-3.6,0.1l-0.3,0l-4,0.2L65,116.5l-2.1,9.4l-6,26.8L51,178.5l-0.5,2.4l-1.3,6
		l-9.7,43.5L36.6,243l-15.9,70.8l0.3,0l67.9-4.1l26.1-1.6l19.2-1.2l8.8-0.5l36.3-2.2l4.6-0.3c0.5-3.4,1-6.8,1.5-10.1
		c0.3-1.7,0.5-3.3,0.8-4.9c0.1-0.5,0.1-0.9,0.2-1.3L179.9,288z M534.5,230.7l-5.5-12v0l-48.3-105.1l-4-8.8l-6.9-15l-69.9,2.7
		l-13,0.5l-18.6,0.7c0.3,0.4,0.7,0.9,1,1.3c2.2,3,4.1,6.1,5.8,9.2l9.9-0.4h0l66.8-3l8.1,18l3.9,8.8l34.2,76.3v0l5.3,11.7l22.5,50.2
		l-0.6,0l-21.7,1.4l-2.5,0.2l-23.6,1.5l-2.4,0.2l-182.9,11.7l-1.7,0.1l-13.1,0.8l-1.7,1.4l-0.9,0.8h0l-0.8-0.6l-1.6-1.2l-8.3,0.5
		l-0.6,0c0,0.1,0,0.3,0.1,0.4c0,0.3-169.3-10.3-107-0.1c4.9,0.8,5.8,18.7,6.6,23.9l129.7-9.4l20.6-1.2l195-11.8h0l27.7-1.7h0
		l21.1-1.3l0.6,0L534.5,230.7z"/>
	<path class="st2" d="M521.5,223.7l-5.5-12v0l-48.3-105.1l-4-8.8l-6.9-15l-69.9,2.7l-13,0.5l-112.2,4.3L247,90.8h0l-45.3,1.7
		L189.9,93l-50,1.9h0L129,95.4l-61.3,2.4l-13.2,0.5L52,109.4l-2.1,9.4L38,171.5l-1.9,8.4l-9.7,43.5l-2.8,12.6L7.7,306.8l68.2-4.1
		L102,301l71.7-4.3l11-0.7l42.9-2.6l15-0.9l37-2.2l20.6-1.2l195-11.8h0l27.7-1.7h0l21.7-1.3L521.5,223.7z M490.4,260.2l-26.1,1.7
		l-185.2,11.9l-14.8,0.9l-2.7,2.2h0l-2.5-1.9l-10,0.6l-82.2,5.3l-10.9,0.7l-30.9,2h0l-25.2,1.6l-71.2,4.6l14-69.3l2.5-12.2l3.6-17.7
		l1.7-8.5l11-54.5l2-9.8l1.5-7.6l86.2-3.8l11.9-0.5h0l11.1-0.5h0l12-0.5h0l82.3-3.6l14.8-0.7h0l74.8-3.3l13.7-0.6h0l66.8-3l8.1,18
		l3.9,8.8l34.2,76.3v0l5.3,11.7l22.5,50.2L490.4,260.2z"/>
	<polygon class="st3" points="174.3,105.5 169.8,109 163.3,106 	"/>
	<polygon class="st4" points="512.7,258.8 490.4,260.2 357.6,197.6 398.2,164 490.2,208.5 	"/>
	<path class="st5" d="M357.6,197.6l40.6-33.6l92,44.5l-5.3-11.7v0l-80.2-38.3l46-38l-3.9-8.8l-51.2,42.4L334.5,125L372,96.7
		l-13.7,0.6l-32.4,23.6l-42.4-20.3h0l-14.8,0.7l50.5,24.5l-44.8,32.6L177,112.4l9.3-7.5l-12,0.5h0l-4.5,3.6l-6.6-3.1h0l-11.9,0.5
		l13.4,6.6l-51.2,40.8l-49.9-36.1l-2,9.8l43.8,32.7l-41.5,33.1l-13.4-11.3l-1.7,8.5l9,7.7l-12.6,10l-2.5,12.2l21.2-17l68.4,58.1
		l-32.5,23.6l25.2-1.6h0l17.5-13.3l13.3,11.3l10.9-0.7l-18-15.3l48.5-36.7l56.9,42.5l-5.1,4.3l10-0.6l5.2-0.3l14.8-0.9l-7.3-5.3
		l77.2-63.9l115.3,57.2l26.1-1.7L357.6,197.6z M138.7,256.9L70,198.6l41.7-33.6l75.8,56.5L138.7,256.9z M197.1,214.5l-77.4-56
		l52-41.9l95,47.2L197.1,214.5z M264.3,263.1L207,221.6l69.8-52.8l63.3,31.4L264.3,263.1z M348.5,193.3L284.3,163l43.6-33l61.1,29.6
		L348.5,193.3z"/>
	<polygon class="st3" points="266.8,163.8 197.1,214.5 119.8,158.5 171.8,116.6 	"/>
	<polygon class="st3" points="389.1,159.6 348.5,193.3 284.3,163 328,130 	"/>
	<polygon class="st5" points="340.1,200.2 264.3,263.1 207,221.6 276.8,168.8 	"/>
	<polygon class="st3" points="464.3,261.9 279.1,273.7 264.9,274.3 349,204.6 	"/>
	<polygon class="st3" points="259.2,275 249.2,275.6 166.9,280.9 148.9,265.6 197.4,228.9 	"/>
	<polygon class="st3" points="156,281.6 125.1,283.6 142.7,270.3 	"/>
	<polygon class="st3" points="57.8,198.3 45.2,208.3 48.8,190.6 	"/>
	<polygon class="st3" points="132.4,261.6 99.9,285.2 28.7,289.8 42.8,220.5 63.9,203.4 	"/>
	<polygon class="st4" points="187.5,221.5 138.7,256.9 70,198.6 111.7,165 	"/>
	<polygon class="st6" points="105.5,160.3 63.9,193.4 50.6,182.1 61.6,127.6 	"/>
	<polygon class="st4" points="164.7,113.1 113.5,153.9 63.6,117.9 65.1,110.3 151.3,106.5 	"/>
	<polygon class="st4" points="319.2,125.7 274.4,158.3 177,112.4 186.3,104.9 186.3,104.9 268.6,101.3 	"/>
	<polygon class="st6" points="358.3,97.3 325.8,120.9 283.4,100.6 	"/>
	<polygon class="st3" points="446.8,111.7 395.6,154.2 334.5,125 372,96.7 372,96.7 438.7,93.8 	"/>
	<polygon class="st6" points="484.9,196.8 404.7,158.5 450.7,120.5 	"/>
	<path class="st7" d="M166.9,279.6l-0.6,0l-0.8,0.1l-9.5,0.6l-1.4,0.1l-27.5,1.8l-1.9,0.1h0l-2.1,0.1l-21.2,1.3l-2,0.1L29,288.4
		l-0.3,0l14-69.3l2.5-12.2l3.6-17.7l1.5-7.6l0.2-0.9l5.8-28.6l0.5-2.6v-30.2c0-6,1.1-11.9,3.3-17.6c0.1-0.2,0.2-0.5,0.3-0.7
		c0.4-1,0.8-2.1,1.3-3.1c0.2-0.4,0.4-0.9,0.6-1.3l-3.6,0.1l-0.3,0l-4,0.2L52,108.1l-2.1,9.4l-6,26.8L38,170.2l-0.5,2.4l-1.3,6
		L26.4,222l-2.8,12.6L7.7,305.4l0.3,0l67.9-4.1l26.1-1.6l19.2-1.2l8.8-0.5l36.3-2.2l4.6-0.3c0.5-3.4,1-6.8,1.5-10.1
		c0.3-1.7,0.5-3.3,0.8-4.9c0.1-0.5,0.1-0.9,0.2-1.3L166.9,279.6z M521.5,222.3l-5.5-12v0l-48.3-105.1l-4-8.8l-6.9-15l-69.9,2.7
		l-13,0.5l-18.6,0.7c0.3,0.4,0.7,0.9,1,1.3c2.2,3,4.1,6.1,5.8,9.2l9.9-0.4h0l66.8-3l8.1,18l3.9,8.8l34.2,76.3v0l5.3,11.7l22.5,50.2
		l-0.6,0l-21.7,1.4l-2.5,0.2l-23.6,1.5l-2.4,0.2l-182.9,11.7l-1.7,0.1l-13.1,0.8l-5.1,0.3l-8.3,0.5l-0.6,0c0,0.1,0,0.3,0.1,0.4
		c0,0.3,0.1,0.6,0.2,0.9c0.8,4.8,1.6,9.9,2.4,15l26.7-1.6l20.6-1.2l195-11.8h0l27.7-1.7h0l21.1-1.3l0.6,0L521.5,222.3z"/>
</g>
<g id="Capa_4">
	<path class="st8" d="M364.8,102.2c-0.6-1.7-1.3-3.4-2.1-5c-0.2-0.4-0.4-0.9-0.6-1.3c-1.6-3.2-3.5-6.2-5.8-9.2
		c-0.3-0.4-0.7-0.9-1-1.3l-33.6,1.3l-47,1.8l-2.2,0.1l-10.8,0.4L247,89.5h0l-45.3,1.7l-11.8,0.5l-50,1.9h0L129,94l-61.3,2.4
		l-5.3,0.2c-0.2,0.5-0.4,0.9-0.6,1.3c-0.5,1-0.9,2.1-1.3,3.1c-0.1,0.2-0.2,0.5-0.3,0.7c-2.1,5.7-3.3,11.6-3.3,17.6v33.1
		c0,12.6,5,24.7,13.9,35.5c1.6,2,3.4,3.9,5.2,5.8c0.4,0.4,0.8,0.8,1.2,1.2c13.2,12.8,32.3,23.6,55.1,31.2c10.6,3.5,22,6.4,34,8.4
		c0.9,0.1,1.8,0.3,2.7,0.4c4.5,0.7,9,1.3,13.6,1.8c-0.4,1.4-0.8,2.8-1.1,4.2c-3,11.3-5.7,24.1-8,38.3c-0.1,0.4-0.2,0.9-0.2,1.3
		c-0.3,1.6-0.5,3.3-0.8,4.9c-0.5,3.3-1,6.7-1.5,10.1l2.8-0.2l11-0.7l12.6-0.8l13.6,0.5l42.2-2.6c-0.8-5.2-1.7-11.5-2.6-16.4
		c-0.1-0.3-0.1-0.6-0.2-0.9c0-0.1,0-0.3-0.1-0.4c-0.4-2.3-0.8-4.5-1.2-6.8c-1.2-6.4-2.5-12.5-3.9-18.3c-1-4.4-2.1-8.5-3.2-12.5
		c34.8-3.7,65.6-13.9,87.9-28.1c8.5-5.4,15.8-11.5,21.7-18c10.4-11.5,16.2-24.5,16.2-38.3v-33C367.9,113.4,366.8,107.7,364.8,102.2z
		 M240.3,230.7c-0.5-1.6-1-3.2-1.5-4.8C239.5,227.5,240,229.1,240.3,230.7z M185.9,225.9c-0.5,1.6-1,3.2-1.5,4.9
		C184.6,229.1,185.1,227.5,185.9,225.9z"/>
</g>
<g id="Lupa">
	<path class="st9" d="M139.9,198c-0.5,1.6-1,3.2-1.5,4.9C138.6,201.2,139.1,199.6,139.9,198z"/>
	<path class="st10" d="M321.9,91.4v33c0,41.9-54.2,76.8-125.9,84.4c-0.6-2.1-1.2-4.1-1.8-6c-0.3-1.7-0.8-3.3-1.5-4.8
		c-4.1-9-14.4-15.5-26.5-15.5h0c-12.1,0-22.4,6.4-26.4,15.5c-0.7,1.6-1.2,3.2-1.5,4.9c-0.6,1.9-1.2,3.9-1.7,6
		C65,201.1,10.9,166.3,10.9,124.4v-33c0,5.6,1,11.2,2.9,16.5c12.8,36.5,67.3,64.7,134.9,68.9c5.8,0.4,11.7,0.6,17.7,0.6h0.1
		c6,0,11.8-0.2,17.6-0.5c67.7-4.2,122.2-32.5,135-69C320.9,102.6,321.9,97,321.9,91.4z"/>
	<path class="st9" d="M194.3,202.8c-0.5-1.6-1-3.2-1.5-4.8C193.5,199.5,194,201.1,194.3,202.8z"/>
	<path class="st11" d="M321.8,88c0-0.4-0.1-0.9-0.1-1.3c-4.5-45.3-72.3-81.2-155.3-81.2c-85.9,0-155.5,38.5-155.5,86
		c0,5.6,1,11.2,2.9,16.5c4.8,13.5,15.3,26,30.1,36.4c0.1,0.1,0.2,0.1,0.3,0.2c3.8,2.7,7.9,5.3,12.3,7.7c0.1,0,0.2,0.1,0.2,0.1
		c0.1,0.1,0.2,0.1,0.3,0.2c11.4,6.2,24.5,11.5,38.9,15.6c3,0.8,6.1,1.6,9.2,2.4c6.1,1.5,12.5,2.7,19,3.7c6.8,1.1,13.7,1.9,20.8,2.4
		c1.3,0.1,2.6,0.2,3.9,0.3c5.8,0.4,11.8,0.6,17.8,0.6c6,0,11.8-0.2,17.6-0.5c28.2-1.8,54.1-7.7,75.6-16.6c3.3-1.4,6.5-2.8,9.6-4.3
		c18.7-9.1,33.4-20.7,42.4-33.8c1.4-2,2.7-4.1,3.8-6.2c1.4-2.6,2.6-5.3,3.6-8c1-2.9,1.8-5.9,2.3-8.9c0.4-2.5,0.6-5,0.6-7.6
		C321.9,90.2,321.9,89.1,321.8,88z M222.9,134.1c-3.4,1-7,1.9-10.6,2.6c-14,3-29.5,4.7-45.9,4.7c-8.2,0-16.1-0.4-23.8-1.2
		c-3.5-0.3-6.8-0.8-10.2-1.3c-30.3-4.6-54.6-15.1-66.5-28.6c-2.4-2.7-4.3-5.6-5.7-8.5c-0.5-1.2-1-2.4-1.4-3.7
		c-0.1-0.4-0.2-0.9-0.3-1.3c-0.1-0.3-0.2-0.7-0.2-1c-0.3-1.4-0.4-2.9-0.4-4.4c0-27.6,48.6-50,108.5-50c57.8,0,105,20.8,108.3,47
		c0.1,0.4,0.1,0.9,0.1,1.3c0,0.5,0.1,1.1,0.1,1.6c0,1.5-0.1,2.9-0.4,4.4c-0.3,1.8-0.9,3.6-1.6,5.4c-0.3,0.6-0.5,1.2-0.8,1.8
		C265.2,116.1,247.2,127.2,222.9,134.1z"/>
	<path class="st9" d="M10.9,124.4"/>
	<path class="st9" d="M10.9,129.9"/>
	<path class="st9" d="M321.9,124.4"/>
	<path class="st9" d="M321.9,128.9"/>
	<path class="st12" d="M213.3,320.5L213.3,320.5c0,19.5-21.1,35.3-47,35.3h0v-70.7h0c24,0,43.9,13.5,46.7,31
		C213.2,317.6,213.3,319,213.3,320.5z"/>
	<path class="st13" d="M166.3,285.1v70.7c-26,0-47-15.8-47-35.3v0c0-1.4,0.1-2.8,0.3-4.1C122.4,298.8,142.2,285.1,166.3,285.1z"/>
	<path class="st9" d="M139.9,198c-0.5,1.6-1,3.2-1.5,4.9C138.6,201.2,139.1,199.6,139.9,198z"/>
	<path class="st9" d="M194.3,202.8c-0.5-1.6-1-3.2-1.5-4.8C193.5,199.5,194,201.1,194.3,202.8z"/>
	<path class="st12" d="M213,316.2c-2.8-17.5-22.6-31-46.7-31h0V182.5h0c12.1,0,22.4,6.4,26.5,15.5c0.5,1.6,1,3.2,1.5,4.8
		c0.6,2,1.2,4,1.8,6C203.6,235.9,209.5,273.1,213,316.2z"/>
	<path class="st14" d="M166.3,182.5v102.6c-24.1,0-43.9,13.6-46.7,31.2c3.5-43.2,9.4-80.4,17-107.5c0.6-2,1.1-4,1.7-6
		c0.5-1.7,1-3.3,1.5-4.9C143.9,189,154.2,182.5,166.3,182.5z"/>
	<path class="st15" d="M274.5,94.7c-0.4,2.2-1.1,4.3-2.1,6.4c-0.3,0.5-0.5,1.1-0.8,1.6c-7.2,13-25.5,24-50,30.7
		c-3.5,0.9-7,1.8-10.7,2.6c-13.6,2.8-28.6,4.4-44.4,4.4c-7.8,0-15.4-0.4-22.7-1.1c-3.5-0.3-6.9-0.8-10.2-1.2
		c-30-4.4-54.3-14.6-66.7-27.8c-2.8-2.9-4.9-6-6.4-9.2c-0.5-1-0.9-2-1.2-3c-0.1-0.4-0.3-0.9-0.4-1.3c-0.2-0.7-0.3-1.3-0.5-2
		c2.9-15.5,21.2-29,47.8-37.2c13-4,28.1-6.8,44.3-7.9c5.2-0.4,10.6-0.5,16-0.5c52.1,0,95.6,16.9,106,39.5c0.2,0.4,0.4,0.9,0.6,1.3
		C273.7,91.4,274.2,93.1,274.5,94.7z"/>
	
		<ellipse transform="matrix(0.9747 -0.2235 0.2235 0.9747 -12.7127 30.2178)" class="st16" cx="127.1" cy="71.3" rx="36.6" ry="14.3"/>
	<path class="st9" d="M166.3,355.8"/>
	<path class="st9" d="M166.3,384.4"/>
	<path class="st9" d="M166.3,177.4"/>
	<path class="st9" d="M166.3,182.5"/>
	<path class="st17" d="M274.6,88.4l-2.2,0.1c-10.5-22.5-54-39.5-106-39.5c-5.5,0-10.8,0.2-16,0.5c-16.2,1.1-31.2,3.9-44.3,7.9
		c-26.6,8.2-44.9,21.7-47.8,37.2c0.1,0.7,0.3,1.3,0.5,2l-0.3,0c-0.1-0.3-0.2-0.7-0.2-1c-0.3-1.4-0.4-2.9-0.4-4.4
		c0-27.6,48.6-50,108.5-50C224.1,41.4,271.3,62.2,274.6,88.4z"/>
</g>
</svg>
